<svg xmlns="http://www.w3.org/2000/svg" xmlns:svg="http://www.w3.org/2000/svg" id="svg3007" width="64" height="64" version="1.1"><metadata id="metadata3012"/><g id="layer1"><rect style="fill:#fff;fill-opacity:1" id="rect3033" width="94" height="67.818" x="-17.636" y="-2"/><path id="polygon3517" d="m 0.17561873,8.7581772 0,16.6951278 C 8.7781797,21.871202 20.272518,18.271297 34.737463,14.638647 c 9.26865,-2.324149 18.22655,-4.278422 26.87893,-5.8804698 l -61.44077427,0 z M 63.824383,12.318002 c -8.38794,1.246605 -15.9103,2.71357 -22.53054,4.370924 -7.57892,1.903632 -13.68026,3.828143 -18.294792,5.790348 -4.62044,1.927063 -6.766831,3.4856 -6.466264,4.686351 0.271095,1.060183 2.20611,1.541529 5.812879,1.441955 1.856429,-0.03515 4.862217,-0.239315 9.034747,-0.608325 4.17254,-0.369011 9.55966,-0.902641 16.15439,-1.599668 6.53675,-0.674899 11.95092,-1.131358 16.28958,-1.396893 l 0,-12.684692 z m -18.63275,21.178703 c -1.85642,0.02343 -4.41207,0.1654 -7.68292,0.405551 -3.28262,0.246011 -7.3436,0.60027 -12.21155,1.103995 -7.555347,0.808309 -13.843804,1.437492 -18.8355263,1.847505 -2.394458,0.202061 -4.474708,0.327684 -6.28601797,0.42808 l 0,13.54085 C 10.089674,49.373495 19.058118,47.645638 27.054543,45.640664 c 7.85591,-1.968058 13.89383,-3.88851 18.13709,-5.745286 4.24914,-1.856769 6.23303,-3.431982 5.90299,-4.708882 -0.27699,-1.101178 -2.26676,-1.660504 -5.90299,-1.689791 z m 18.63275,4.753944 c -8.71186,3.412774 -19.5248,6.75986 -32.44397,10.003557 C 19.352298,51.27006 8.9623677,53.42791 0.17561873,54.765531 l 0,0.112655 63.64876427,0 0,-16.627537 z M 2.8342207,41.089497 c 0.03246,-0.0047 0.05732,-2.82e-4 0.09012,0 0.164542,0.0056 0.339978,0.05709 0.450611,0.180244 0.168976,0.17395 0.212847,0.452824 0.112653,0.675916 -0.108961,0.256746 -0.398145,0.411585 -0.675916,0.360489 -0.306617,-0.04451 -0.544359,-0.345911 -0.518202,-0.653387 0.0089,-0.289472 0.254598,-0.527415 0.540733,-0.563262 z m 2.253053,0 c 0.143684,0.0058 0.277332,0.0349 0.38302,0.135182 0.199645,0.164044 0.278341,0.459054 0.180244,0.698447 -0.09185,0.245984 -0.343502,0.428722 -0.608325,0.405548 -0.227454,-0.0093 -0.451208,-0.151051 -0.540733,-0.360487 -0.123791,-0.272226 -0.02295,-0.640415 0.247836,-0.788569 0.100959,-0.06181 0.219293,-0.09132 0.337958,-0.09012 z M 2.9243427,45.0774 c 0.26842,-0.0086 0.508239,0.18036 0.585794,0.42808 0.08215,0.275524 -0.04854,0.622197 -0.315428,0.743509 -0.268073,0.134513 -0.62017,0.04925 -0.788568,-0.202775 -0.171405,-0.246085 -0.147714,-0.617315 0.09012,-0.811098 0.11656,-0.104054 0.271513,-0.161015 0.428079,-0.157716 z m 2.162931,0 c 0.213482,-0.01167 0.403215,0.123434 0.518203,0.2929 0.165659,0.258419 0.09635,0.631113 -0.157714,0.811097 -0.254851,0.193821 -0.653227,0.161325 -0.85616,-0.09012 -0.209783,-0.249822 -0.19594,-0.675212 0.06759,-0.878693 0.114354,-0.09448 0.278794,-0.139921 0.42808,-0.135184 z" style="font-style:normal;font-variant:normal;font-weight:400;font-stretch:normal;letter-spacing:normal;word-spacing:normal;text-anchor:start;fill:#809cc8;fill-opacity:1;fill-rule:nonzero;stroke:none"/></g></svg>